<svg id="Icon_-_Arrow_Right_1" data-name="Icon - Arrow Right 1" xmlns="http://www.w3.org/2000/svg" width="7.047" height="10.186" viewBox="0 0 7.047 10.186">
  <path id="Arrow_Right_1" data-name="Arrow Right 1" d="M435.982,50.05q2.148,2.22,4.2,4.528c-.09-.337-.177-.678-.268-1.015-.007.024-.01.052-.017.076a1.05,1.05,0,0,0,1.741,1.015,61.71,61.71,0,0,0,3.968-4.931c.865-1.018-.6-2.5-1.473-1.473a60.336,60.336,0,0,1-3.968,4.931c.58.337,1.161.678,1.741,1.015.222-.959-.7-1.6-1.282-2.238q-1.559-1.715-3.169-3.378c-.931-.97-2.4.5-1.473,1.47Z" transform="translate(-47.904 445.871) rotate(-90)" fill="#092167"/>
</svg>
