<svg xmlns="http://www.w3.org/2000/svg" width="19.366" height="18.076" viewBox="0 0 19.366 18.076">
  <g id="Grupo_4" data-name="Grupo 4" transform="translate(-46.009 -567.756)">
    <path id="Shape" d="M7.981,14.887A7.735,7.735,0,0,1,0,7.443,7.735,7.735,0,0,1,7.981,0a7.735,7.735,0,0,1,7.98,7.443A7.735,7.735,0,0,1,7.981,14.887Zm0-13.476A6.269,6.269,0,0,0,1.513,7.443a6.269,6.269,0,0,0,6.469,6.033,6.269,6.269,0,0,0,6.467-6.033A6.269,6.269,0,0,0,7.981,1.411Z" transform="translate(46.009 567.756)" fill="#092168"/>
    <path id="Shape-2" data-name="Shape" d="M14.6,14.893a.777.777,0,0,1-.534-.207l-3.385-3.157a.672.672,0,0,1,0-1,.8.8,0,0,1,1.069,0l3.386,3.157a.673.673,0,0,1,0,1A.779.779,0,0,1,14.6,14.893ZM4.01,8.466a.733.733,0,0,1-.756-.705V7.146a3.281,3.281,0,0,1-1.547-.824l-.561.314a.794.794,0,0,1-.388.1.773.773,0,0,1-.65-.343A.661.661,0,0,1,.02,5.873a.706.706,0,0,1,.347-.446l.568-.317a2.8,2.8,0,0,1,0-1.753L.367,3.04A.709.709,0,0,1,.02,2.593a.663.663,0,0,1,.088-.522.774.774,0,0,1,.65-.343.8.8,0,0,1,.388.1l.561.315a3.285,3.285,0,0,1,1.547-.825V.705A.733.733,0,0,1,4.01,0a.733.733,0,0,1,.756.705v.612a3.3,3.3,0,0,1,1.518.8L6.8,1.828a.8.8,0,0,1,.388-.1.764.764,0,0,1,.65.343.663.663,0,0,1,.088.522.709.709,0,0,1-.348.447l-.5.281a2.789,2.789,0,0,1,0,1.824l.5.281a.706.706,0,0,1,.347.446.661.661,0,0,1-.088.522.763.763,0,0,1-.65.343.794.794,0,0,1-.388-.1l-.514-.287a3.262,3.262,0,0,1-1.518.8v.615A.733.733,0,0,1,4.01,8.466Zm0-5.82a1.649,1.649,0,0,0-1.7,1.586A1.65,1.65,0,0,0,4.01,5.82a1.65,1.65,0,0,0,1.7-1.588A1.648,1.648,0,0,0,4.01,2.646Z" transform="translate(50.018 570.939)" fill="#960d0d"/>
  </g>
</svg>
