<svg xmlns="http://www.w3.org/2000/svg" width="21.454" height="16.354" viewBox="0 0 21.454 16.354">
  <g id="Grupo_3" data-name="Grupo 3" transform="translate(-358 -292)">
    <g id="person" transform="translate(358 292)">
      <path id="Trazado_13" data-name="Trazado 13" d="M19.491,20.854a1.335,1.335,0,0,0,1.363-1.363c0-1.363-1.363-5.451-8.177-5.451S4.5,18.128,4.5,19.491a1.335,1.335,0,0,0,1.363,1.363ZM5.87,19.568v0Zm.023-.076H19.461l.019,0,.011,0a3.639,3.639,0,0,0-1.134-2.268c-.889-.888-2.561-1.815-5.68-1.815S7.885,16.33,7,17.218a3.649,3.649,0,0,0-1.134,2.268Zm13.593.076v0Zm-6.809-8.253A2.726,2.726,0,1,0,9.951,8.589,2.726,2.726,0,0,0,12.677,11.314Zm4.089-2.726A4.089,4.089,0,1,1,12.677,4.5,4.089,4.089,0,0,1,16.766,8.589Z" transform="translate(-4.5 -4.5)" fill="#092167" fill-rule="evenodd"/>
    </g>
    <g id="check" transform="translate(371.931 296.201)">
      <path id="Trazado_14" data-name="Trazado 14" d="M15.522,10.883a.69.69,0,1,1,.986.967l-3.674,4.592a.69.69,0,0,1-.994.018L9.406,14.025a.69.69,0,1,1,.975-.975l1.927,1.926L15.5,10.9l.018-.02Z" transform="translate(-9.182 -10.676)" fill="#960d0d" fill-rule="evenodd"/>
    </g>
  </g>
</svg>
