<svg xmlns="http://www.w3.org/2000/svg" width="19.366" height="15.949" viewBox="0 0 19.366 15.949">
  <g id="Grupo_5" data-name="Grupo 5" transform="translate(-45.009 -640.701)">
    <path id="Shape" d="M13.314,15.949H6.052a.665.665,0,1,1,0-1.318h7.262a.665.665,0,1,1,0,1.318Zm1.513-2.637H4.538A4.28,4.28,0,0,1,0,9.359V3.954A4.282,4.282,0,0,1,4.539,0h7.489a.714.714,0,0,1,.757.659.714.714,0,0,1-.757.659H4.539A2.854,2.854,0,0,0,1.513,3.954V9.359a2.853,2.853,0,0,0,3.024,2.635H14.827a2.854,2.854,0,0,0,3.025-2.636V6.393a.764.764,0,0,1,1.513,0V9.358A4.281,4.281,0,0,1,14.827,13.312Z" transform="translate(45.009 640.701)" fill="#092168"/>
    <path id="Shape-2" data-name="Shape" d="M1.2,6.36H.757A.714.714,0,0,1,0,5.7a.713.713,0,0,1,.757-.658H1.2a10.137,10.137,0,0,0,6.866-2.6.808.808,0,0,1,.547-.2.816.816,0,0,1,.522.182.621.621,0,0,1,.234.465.609.609,0,0,1-.21.467A11.751,11.751,0,0,1,1.2,6.36Zm9.834-1.944a.714.714,0,0,1-.757-.659V2.017a.756.756,0,0,0-.8-.7h-2A.714.714,0,0,1,6.726.659.714.714,0,0,1,7.482,0h2a2.183,2.183,0,0,1,2.314,2.017v1.74A.714.714,0,0,1,11.038,4.416Z" transform="translate(52.58 640.701)" fill="#960d0d"/>
  </g>
</svg>
