<svg xmlns="http://www.w3.org/2000/svg" width="19.912" height="14.934" viewBox="0 0 19.912 14.934">
  <g id="card-checklist" transform="translate(0 -4.5)">
    <path id="Trazado_5" data-name="Trazado 5" d="M18.045,5.745H1.867a.622.622,0,0,0-.622.622v11.2a.622.622,0,0,0,.622.622H18.045a.622.622,0,0,0,.622-.622V6.367A.622.622,0,0,0,18.045,5.745ZM1.867,4.5A1.867,1.867,0,0,0,0,6.367v11.2a1.867,1.867,0,0,0,1.867,1.867H18.045a1.867,1.867,0,0,0,1.867-1.867V6.367A1.867,1.867,0,0,0,18.045,4.5Z" transform="translate(0 0)" fill="#092168" fill-rule="evenodd"/>
    <path id="Trazado_6" data-name="Trazado 6" d="M11.375,11.369A.622.622,0,0,1,12,10.747H18.22a.622.622,0,0,1,0,1.245H12A.622.622,0,0,1,11.375,11.369ZM9.514,10.306a.622.622,0,0,1,0,.881L7.647,13.054a.622.622,0,0,1-.881,0l-.622-.622a.623.623,0,0,1,.881-.881l.181.183,1.426-1.428a.622.622,0,0,1,.881,0Zm1.862,6.041A.622.622,0,0,1,12,15.725H18.22a.622.622,0,0,1,0,1.245H12A.622.622,0,0,1,11.375,16.347ZM9.514,15.284a.622.622,0,0,1,0,.881L7.647,18.032a.622.622,0,0,1-.881,0l-.622-.622a.623.623,0,0,1,.881-.881l.181.183,1.426-1.428a.622.622,0,0,1,.881,0Z" transform="translate(-2.664 -2.513)" fill="#092168" fill-rule="evenodd"/>
  </g>
</svg>
