<svg xmlns="http://www.w3.org/2000/svg" width="19.606" height="16.067" viewBox="0 0 19.606 16.067">
  <g id="Grupo_2" data-name="Grupo 2" transform="translate(-46.855 -384.104)">
    <g id="book" transform="translate(46.855 384.104)">
      <path id="Trazado_8" data-name="Trazado 8" d="M3.938,2.225c1.96-.392,4.537-.444,6.3,1.316a.613.613,0,0,1,.179.434V17.454a.613.613,0,0,1-1.046.434A5.105,5.105,0,0,0,5.117,16.76,13.155,13.155,0,0,0,.887,18,.613.613,0,0,1,0,17.454V3.974a.613.613,0,0,1,.338-.548l.274.548L.338,3.427h0l0,0,.016-.007q.133-.066.27-.126A15.878,15.878,0,0,1,3.94,2.225ZM1.225,4.367V16.508a14.186,14.186,0,0,1,3.767-.966,7.112,7.112,0,0,1,4.2.686V4.241C7.888,3.1,5.966,3.07,4.178,3.428a14.653,14.653,0,0,0-2.953.939Z" transform="translate(0 -2)" fill="#092168" fill-rule="evenodd"/>
      <path id="Trazado_9" data-name="Trazado 9" d="M23.352,2.225c-1.958-.392-4.536-.444-6.3,1.316a.613.613,0,0,0-.179.434V17.454a.613.613,0,0,0,1.046.434,5.105,5.105,0,0,1,4.252-1.127A13.155,13.155,0,0,1,26.4,18a.613.613,0,0,0,.887-.547V3.974a.613.613,0,0,0-.338-.548l-.274.548.274-.548h0l0,0-.016-.007-.058-.028q-.482-.225-.979-.417a15.881,15.881,0,0,0-2.54-.746Zm2.713,2.142V16.508a14.186,14.186,0,0,0-3.767-.966,7.112,7.112,0,0,0-4.2.686V4.241c1.3-1.138,3.224-1.171,5.012-.814a14.651,14.651,0,0,1,2.953.939Z" transform="translate(-7.684 -2)" fill="#092168" fill-rule="evenodd"/>
    </g>
    <g id="list" transform="translate(58.877 390.401)">
      <path id="Trazado_12" data-name="Trazado 12" d="M5.625,10.561a.228.228,0,0,1,.233-.224h4.651a.224.224,0,1,1,0,.448H5.858A.228.228,0,0,1,5.625,10.561Zm0-1.793a.228.228,0,0,1,.233-.224h4.651a.224.224,0,1,1,0,.448H5.858A.228.228,0,0,1,5.625,8.768Zm0-1.793a.228.228,0,0,1,.233-.224h4.651a.224.224,0,1,1,0,.448H5.858A.228.228,0,0,1,5.625,6.974Z" transform="translate(-5.625 -6.75)" fill="#960d0d" fill-rule="evenodd"/>
    </g>
    <g id="list-2" data-name="list" transform="translate(49.554 390.401)">
      <path id="Trazado_12-2" data-name="Trazado 12" d="M5.625,10.561a.233.233,0,0,1,.24-.224h4.808a.225.225,0,1,1,0,.448H5.865A.233.233,0,0,1,5.625,10.561Zm0-1.793a.233.233,0,0,1,.24-.224h4.808a.225.225,0,1,1,0,.448H5.865A.233.233,0,0,1,5.625,8.768Zm0-1.793a.233.233,0,0,1,.24-.224h4.808a.225.225,0,1,1,0,.448H5.865A.233.233,0,0,1,5.625,6.974Z" transform="translate(-5.625 -6.75)" fill="#960d0d" fill-rule="evenodd"/>
    </g>
  </g>
</svg>
